<mxfile host="app.diagrams.net" modified="2023-08-19T19:31:14.852Z" agent="Mozilla/5.0 (Windows NT 10.0; Win64; x64) AppleWebKit/537.36 (KHTML, like Gecko) Chrome/115.0.0.0 Safari/537.36 Edg/115.0.1901.203" etag="lx7Ongv5hPSEg97juvXn" version="21.3.8" type="device">
  <diagram name="Page-1" id="JwWIW539SJy5Nfiv_3Xt">
    <mxGraphModel dx="1434" dy="788" grid="1" gridSize="10" guides="1" tooltips="1" connect="1" arrows="1" fold="1" page="1" pageScale="1" pageWidth="827" pageHeight="1169" math="0" shadow="0">
      <root>
        <mxCell id="0" />
        <mxCell id="1" parent="0" />
        <mxCell id="sXG0RyfktgG4jFemLIl1-1" value="Symbol" style="rounded=0;whiteSpace=wrap;html=1;" vertex="1" parent="1">
          <mxGeometry x="320" y="260" width="80" height="40" as="geometry" />
        </mxCell>
        <mxCell id="sXG0RyfktgG4jFemLIl1-36" style="edgeStyle=none;rounded=0;orthogonalLoop=1;jettySize=auto;html=1;exitX=1;exitY=0.5;exitDx=0;exitDy=0;" edge="1" parent="1" source="sXG0RyfktgG4jFemLIl1-3">
          <mxGeometry relative="1" as="geometry">
            <mxPoint x="320" y="290" as="targetPoint" />
          </mxGeometry>
        </mxCell>
        <mxCell id="sXG0RyfktgG4jFemLIl1-3" value="ReturnSymbol" style="rounded=0;whiteSpace=wrap;html=1;fillColor=#f8cecc;strokeColor=#b85450;" vertex="1" parent="1">
          <mxGeometry x="120" y="310" width="120" height="40" as="geometry" />
        </mxCell>
        <mxCell id="sXG0RyfktgG4jFemLIl1-46" style="edgeStyle=none;rounded=0;orthogonalLoop=1;jettySize=auto;html=1;exitX=1;exitY=0.5;exitDx=0;exitDy=0;entryX=0;entryY=0.5;entryDx=0;entryDy=0;" edge="1" parent="1" source="sXG0RyfktgG4jFemLIl1-4" target="sXG0RyfktgG4jFemLIl1-18">
          <mxGeometry relative="1" as="geometry" />
        </mxCell>
        <mxCell id="sXG0RyfktgG4jFemLIl1-4" value="ReferenceTypeSymbol" style="rounded=0;whiteSpace=wrap;html=1;fillColor=#fff2cc;strokeColor=#d6b656;" vertex="1" parent="1">
          <mxGeometry x="80" y="390" width="160" height="40" as="geometry" />
        </mxCell>
        <mxCell id="sXG0RyfktgG4jFemLIl1-38" style="edgeStyle=none;rounded=0;orthogonalLoop=1;jettySize=auto;html=1;exitX=0;exitY=0.5;exitDx=0;exitDy=0;" edge="1" parent="1" source="sXG0RyfktgG4jFemLIl1-5">
          <mxGeometry relative="1" as="geometry">
            <mxPoint x="400" y="270" as="targetPoint" />
          </mxGeometry>
        </mxCell>
        <mxCell id="sXG0RyfktgG4jFemLIl1-5" value="ParameterSymbol" style="rounded=0;whiteSpace=wrap;html=1;fillColor=#f8cecc;strokeColor=#b85450;" vertex="1" parent="1">
          <mxGeometry x="480" y="230" width="120" height="40" as="geometry" />
        </mxCell>
        <mxCell id="sXG0RyfktgG4jFemLIl1-35" style="edgeStyle=none;rounded=0;orthogonalLoop=1;jettySize=auto;html=1;exitX=1;exitY=0.5;exitDx=0;exitDy=0;entryX=0;entryY=0.5;entryDx=0;entryDy=0;" edge="1" parent="1" source="sXG0RyfktgG4jFemLIl1-6" target="sXG0RyfktgG4jFemLIl1-1">
          <mxGeometry relative="1" as="geometry">
            <mxPoint x="320" y="220" as="targetPoint" />
          </mxGeometry>
        </mxCell>
        <mxCell id="sXG0RyfktgG4jFemLIl1-6" value="LocalSymbol" style="rounded=0;whiteSpace=wrap;html=1;fillColor=#f8cecc;strokeColor=#b85450;" vertex="1" parent="1">
          <mxGeometry x="160" y="260" width="80" height="40" as="geometry" />
        </mxCell>
        <mxCell id="sXG0RyfktgG4jFemLIl1-52" style="edgeStyle=none;rounded=0;orthogonalLoop=1;jettySize=auto;html=1;exitX=0;exitY=0.5;exitDx=0;exitDy=0;entryX=1;entryY=1;entryDx=0;entryDy=0;" edge="1" parent="1" source="sXG0RyfktgG4jFemLIl1-7" target="sXG0RyfktgG4jFemLIl1-1">
          <mxGeometry relative="1" as="geometry" />
        </mxCell>
        <mxCell id="sXG0RyfktgG4jFemLIl1-7" value="ExceptionHandlerSymbol" style="rounded=0;whiteSpace=wrap;html=1;fillColor=#f8cecc;strokeColor=#b85450;" vertex="1" parent="1">
          <mxGeometry x="480" y="340" width="160" height="40" as="geometry" />
        </mxCell>
        <mxCell id="sXG0RyfktgG4jFemLIl1-34" style="edgeStyle=none;rounded=0;orthogonalLoop=1;jettySize=auto;html=1;exitX=1;exitY=0.5;exitDx=0;exitDy=0;" edge="1" parent="1" source="sXG0RyfktgG4jFemLIl1-8">
          <mxGeometry relative="1" as="geometry">
            <mxPoint x="320" y="270" as="targetPoint" />
          </mxGeometry>
        </mxCell>
        <mxCell id="sXG0RyfktgG4jFemLIl1-8" value="FieldSymbol" style="rounded=0;whiteSpace=wrap;html=1;fillColor=#fff2cc;strokeColor=#d6b656;" vertex="1" parent="1">
          <mxGeometry x="160" y="210" width="80" height="40" as="geometry" />
        </mxCell>
        <mxCell id="sXG0RyfktgG4jFemLIl1-43" style="edgeStyle=none;rounded=0;orthogonalLoop=1;jettySize=auto;html=1;exitX=1;exitY=0.5;exitDx=0;exitDy=0;entryX=0;entryY=0.5;entryDx=0;entryDy=0;" edge="1" parent="1" source="sXG0RyfktgG4jFemLIl1-9" target="sXG0RyfktgG4jFemLIl1-10">
          <mxGeometry relative="1" as="geometry" />
        </mxCell>
        <mxCell id="sXG0RyfktgG4jFemLIl1-9" value="ConstructedMethodSymbol" style="rounded=0;whiteSpace=wrap;html=1;fillColor=#f8cecc;strokeColor=#b85450;" vertex="1" parent="1">
          <mxGeometry x="80" y="120" width="160" height="40" as="geometry" />
        </mxCell>
        <mxCell id="sXG0RyfktgG4jFemLIl1-42" style="edgeStyle=none;rounded=0;orthogonalLoop=1;jettySize=auto;html=1;exitX=0.5;exitY=1;exitDx=0;exitDy=0;entryX=0.5;entryY=0;entryDx=0;entryDy=0;" edge="1" parent="1" source="sXG0RyfktgG4jFemLIl1-10" target="sXG0RyfktgG4jFemLIl1-11">
          <mxGeometry relative="1" as="geometry" />
        </mxCell>
        <mxCell id="sXG0RyfktgG4jFemLIl1-10" value="SubstitutedMethodSymbol" style="rounded=0;whiteSpace=wrap;html=1;fillColor=#f8cecc;strokeColor=#b85450;" vertex="1" parent="1">
          <mxGeometry x="280" y="120" width="160" height="40" as="geometry" />
        </mxCell>
        <mxCell id="sXG0RyfktgG4jFemLIl1-41" value="" style="edgeStyle=none;rounded=0;orthogonalLoop=1;jettySize=auto;html=1;" edge="1" parent="1" source="sXG0RyfktgG4jFemLIl1-11" target="sXG0RyfktgG4jFemLIl1-1">
          <mxGeometry relative="1" as="geometry" />
        </mxCell>
        <mxCell id="sXG0RyfktgG4jFemLIl1-11" value="MethodSymbol" style="rounded=0;whiteSpace=wrap;html=1;fillColor=#f8cecc;strokeColor=#b85450;" vertex="1" parent="1">
          <mxGeometry x="300" y="190" width="120" height="40" as="geometry" />
        </mxCell>
        <mxCell id="sXG0RyfktgG4jFemLIl1-51" style="edgeStyle=none;rounded=0;orthogonalLoop=1;jettySize=auto;html=1;exitX=0;exitY=0.5;exitDx=0;exitDy=0;entryX=1;entryY=0.75;entryDx=0;entryDy=0;" edge="1" parent="1" source="sXG0RyfktgG4jFemLIl1-12" target="sXG0RyfktgG4jFemLIl1-1">
          <mxGeometry relative="1" as="geometry" />
        </mxCell>
        <mxCell id="sXG0RyfktgG4jFemLIl1-12" value="ModuleSymbol" style="rounded=0;whiteSpace=wrap;html=1;fillColor=#dae8fc;strokeColor=#6c8ebf;" vertex="1" parent="1">
          <mxGeometry x="480" y="290" width="120" height="40" as="geometry" />
        </mxCell>
        <mxCell id="sXG0RyfktgG4jFemLIl1-47" style="edgeStyle=none;rounded=0;orthogonalLoop=1;jettySize=auto;html=1;exitX=0;exitY=0.5;exitDx=0;exitDy=0;entryX=1;entryY=0.5;entryDx=0;entryDy=0;" edge="1" parent="1" source="sXG0RyfktgG4jFemLIl1-13" target="sXG0RyfktgG4jFemLIl1-18">
          <mxGeometry relative="1" as="geometry" />
        </mxCell>
        <mxCell id="sXG0RyfktgG4jFemLIl1-13" value="TypeParameterSymbol" style="rounded=0;whiteSpace=wrap;html=1;fillColor=#fff2cc;strokeColor=#d6b656;" vertex="1" parent="1">
          <mxGeometry x="480" y="390" width="160" height="40" as="geometry" />
        </mxCell>
        <mxCell id="sXG0RyfktgG4jFemLIl1-37" style="edgeStyle=none;rounded=0;orthogonalLoop=1;jettySize=auto;html=1;exitX=0;exitY=0.5;exitDx=0;exitDy=0;entryX=1;entryY=0;entryDx=0;entryDy=0;" edge="1" parent="1" source="sXG0RyfktgG4jFemLIl1-14" target="sXG0RyfktgG4jFemLIl1-1">
          <mxGeometry relative="1" as="geometry">
            <mxPoint x="400" y="220" as="targetPoint" />
          </mxGeometry>
        </mxCell>
        <mxCell id="sXG0RyfktgG4jFemLIl1-14" value="AssemblySymbol" style="rounded=0;whiteSpace=wrap;html=1;fillColor=#dae8fc;strokeColor=#6c8ebf;" vertex="1" parent="1">
          <mxGeometry x="480" y="180" width="120" height="40" as="geometry" />
        </mxCell>
        <mxCell id="sXG0RyfktgG4jFemLIl1-48" style="edgeStyle=none;rounded=0;orthogonalLoop=1;jettySize=auto;html=1;exitX=1;exitY=0.5;exitDx=0;exitDy=0;entryX=0;entryY=0.5;entryDx=0;entryDy=0;" edge="1" parent="1" source="sXG0RyfktgG4jFemLIl1-15" target="sXG0RyfktgG4jFemLIl1-17">
          <mxGeometry relative="1" as="geometry" />
        </mxCell>
        <mxCell id="sXG0RyfktgG4jFemLIl1-15" value="ArrayTypeSymbol" style="rounded=0;whiteSpace=wrap;html=1;fillColor=#fff2cc;strokeColor=#d6b656;" vertex="1" parent="1">
          <mxGeometry x="120" y="470" width="120" height="40" as="geometry" />
        </mxCell>
        <mxCell id="sXG0RyfktgG4jFemLIl1-49" style="edgeStyle=none;rounded=0;orthogonalLoop=1;jettySize=auto;html=1;exitX=0;exitY=0.5;exitDx=0;exitDy=0;entryX=1;entryY=0.5;entryDx=0;entryDy=0;" edge="1" parent="1" source="sXG0RyfktgG4jFemLIl1-16" target="sXG0RyfktgG4jFemLIl1-17">
          <mxGeometry relative="1" as="geometry" />
        </mxCell>
        <mxCell id="sXG0RyfktgG4jFemLIl1-16" value="ConstrutedNamedTypeSymbol" style="rounded=0;whiteSpace=wrap;html=1;fillColor=#fff2cc;strokeColor=#d6b656;" vertex="1" parent="1">
          <mxGeometry x="480" y="470" width="200" height="40" as="geometry" />
        </mxCell>
        <mxCell id="sXG0RyfktgG4jFemLIl1-45" style="edgeStyle=none;rounded=0;orthogonalLoop=1;jettySize=auto;html=1;exitX=0.5;exitY=0;exitDx=0;exitDy=0;entryX=0.5;entryY=1;entryDx=0;entryDy=0;" edge="1" parent="1" source="sXG0RyfktgG4jFemLIl1-17" target="sXG0RyfktgG4jFemLIl1-18">
          <mxGeometry relative="1" as="geometry" />
        </mxCell>
        <mxCell id="sXG0RyfktgG4jFemLIl1-17" value="NamedTypeSymbol" style="rounded=0;whiteSpace=wrap;html=1;fillColor=#fff2cc;strokeColor=#d6b656;" vertex="1" parent="1">
          <mxGeometry x="300" y="470" width="120" height="40" as="geometry" />
        </mxCell>
        <mxCell id="sXG0RyfktgG4jFemLIl1-44" style="edgeStyle=none;rounded=0;orthogonalLoop=1;jettySize=auto;html=1;exitX=0.5;exitY=0;exitDx=0;exitDy=0;entryX=0.5;entryY=1;entryDx=0;entryDy=0;" edge="1" parent="1" source="sXG0RyfktgG4jFemLIl1-18" target="sXG0RyfktgG4jFemLIl1-1">
          <mxGeometry relative="1" as="geometry" />
        </mxCell>
        <mxCell id="sXG0RyfktgG4jFemLIl1-18" value="TypeSymbol" style="rounded=0;whiteSpace=wrap;html=1;fillColor=#fff2cc;strokeColor=#d6b656;" vertex="1" parent="1">
          <mxGeometry x="320" y="390" width="80" height="40" as="geometry" />
        </mxCell>
      </root>
    </mxGraphModel>
  </diagram>
</mxfile>
